<?xml version="1.0" encoding="UTF-8"?>
<svg width="32" height="34" viewBox="0 0 32 34" fill="none" xmlns="http://www.w3.org/2000/svg">
    <path d="M12.6689 23L15.0556 18L15.0556 4.37114e-08L16.0556 0L16.0556 18L18.4423 23H12.6689Z" fill="white"/>
    <path d="M15.5556 1H18.5556C19.1079 1 19.5556 1.44772 19.5556 2V6H15.5556V1Z" fill="white"/>
    <path d="M19.5556 3H23.5556V8H20.5556C20.0033 8 19.5556 7.55228 19.5556 7V3Z" fill="white"/>
    <path d="M15.5556 22C21.4651 22 26.7624 24.659 30.3615 28.8655C32.229 31.0481 30.3585 34 27.486 34H3.62516C0.752608 34 -1.11789 31.0481 0.749617 28.8655C4.34872 24.659 9.64608 22 15.5556 22Z" fill="#7695C7"/>
    <path d="M15.5556 22C16.6471 22 17.7181 22.0912 18.7611 22.2656C19.2907 23.8543 20.7893 25 22.556 25C23.3733 24.9999 24.1327 24.7538 24.7659 24.333C26.5785 25.3157 28.2216 26.5797 29.64 28.0674C29.2845 28.0247 28.923 28 28.556 28C24.6376 28 21.3053 30.5047 20.0697 34H3.62516C0.752608 34 -1.11789 31.0481 0.749617 28.8655C1.34257 28.1725 1.98214 27.522 2.66243 26.918C3.07737 28.6846 4.6628 30 6.55598 30C8.76494 29.9998 10.556 28.209 10.556 26C10.556 24.8327 10.0557 23.782 9.25813 23.0508C11.2347 22.3693 13.3526 22 15.5556 22Z" fill="#B64024"/>
</svg>
