<?xml version="1.0" encoding="UTF-8"?>
<svg width="68" height="14" viewBox="0 0 68 14" fill="none" xmlns="http://www.w3.org/2000/svg">
    <mask id="path-1-inside-1_3_317" fill="white">
        <path d="M23.9393 9.71292C24.1192 10.2948 24.426 10.7392 24.8598 11.0461C25.2936 11.3529 25.8491 11.5063 26.5263 11.5063C27.2669 11.5063 27.8488 11.3212 28.272 10.9508C28.6953 10.5805 28.9069 10.0674 28.9069 9.41137C28.9069 8.93525 28.7482 8.54377 28.4308 8.23693C28.1239 7.91952 27.6795 7.71849 27.0976 7.63384L25.701 7.42752C24.6006 7.23708 23.77 6.84031 23.2093 6.23722C22.6485 5.63413 22.3681 4.82472 22.3681 3.80899C22.3681 3.03661 22.5427 2.37004 22.8919 1.80927C23.2516 1.23792 23.7489 0.793539 24.3837 0.476124C25.0291 0.158708 25.775 0 26.6215 0C27.4679 0 28.2086 0.153417 28.8434 0.460252C29.4782 0.767088 29.9755 1.20618 30.3352 1.77753C30.7056 2.33829 30.9172 3.01545 30.9701 3.80899H29.256C29.0867 3.13183 28.7799 2.61339 28.3355 2.25365C27.8911 1.88333 27.3198 1.69817 26.6215 1.69817C25.8491 1.69817 25.2407 1.88862 24.7963 2.26952C24.3625 2.63984 24.1456 3.15299 24.1456 3.80899C24.1456 4.29569 24.2991 4.69246 24.6059 4.9993C24.9233 5.30613 25.3677 5.50716 25.939 5.60238L27.3357 5.8087C28.4466 5.98857 29.2825 6.38534 29.8433 6.99901C30.404 7.6021 30.6844 8.40622 30.6844 9.41137C30.6844 10.1838 30.5098 10.8556 30.1607 11.427C29.8221 11.9877 29.3407 12.4268 28.7164 12.7442C28.0922 13.0511 27.3621 13.2045 26.5263 13.2045C25.6798 13.2045 24.9392 13.0669 24.3044 12.7918C23.6801 12.5062 23.1828 12.1041 22.8125 11.5857C22.4528 11.0566 22.2517 10.4324 22.2094 9.71292H23.9393Z"/>
        <path d="M10.9063 12.9505V0.253901H13.7789L15.2708 7.60207H15.4454L16.9213 0.253901H19.6987V12.9505H18.0482V5.64997L18.1116 1.52356H17.9212L16.5087 8.66541H14.1122L12.6838 1.52356H12.4934L12.5569 5.64997V12.9505H10.9063Z"/>
        <path d="M0 12.9505V0.253901H3.07893L6.60224 11.792H6.77682L6.71334 8.14168V0.253901H8.37977V12.9505H5.30084L1.77753 1.41247H1.60295L1.66643 5.06275V12.9505H0Z"/>
        <path d="M61.8972 12.9505V1.95204H58.1517V0.253872H67.452V1.95204H63.7065V12.9505H61.8972Z"/>
        <path d="M48.0477 12.9505L51.1584 6.84024L47.8256 0.253872H49.857L52.3329 5.18968L52.4916 5.96735H52.6661L52.8249 5.18968L55.3642 0.253872H57.3163L53.9834 6.74502L57.0941 12.9505H55.0309L52.8249 8.4908L52.6503 7.6814H52.4757L52.317 8.4908L50.0475 12.9505H48.0477Z"/>
        <path d="M41.4354 12.9505V1.95205H37.6898V0.253873H46.9901V1.95205H43.2446V12.9505H41.4354Z"/>
        <path d="M37.5486 11.1871C37.5486 12.161 36.7591 12.9505 35.7852 12.9505C34.8113 12.9505 34.0218 12.161 34.0218 11.1871C34.0218 10.2132 34.8113 9.42365 35.7852 9.42365C36.7591 9.42365 37.5486 10.2132 37.5486 11.1871Z"/>
    </mask>
    <path d="M23.9393 9.71292C24.1192 10.2948 24.426 10.7392 24.8598 11.0461C25.2936 11.3529 25.8491 11.5063 26.5263 11.5063C27.2669 11.5063 27.8488 11.3212 28.272 10.9508C28.6953 10.5805 28.9069 10.0674 28.9069 9.41137C28.9069 8.93525 28.7482 8.54377 28.4308 8.23693C28.1239 7.91952 27.6795 7.71849 27.0976 7.63384L25.701 7.42752C24.6006 7.23708 23.77 6.84031 23.2093 6.23722C22.6485 5.63413 22.3681 4.82472 22.3681 3.80899C22.3681 3.03661 22.5427 2.37004 22.8919 1.80927C23.2516 1.23792 23.7489 0.793539 24.3837 0.476124C25.0291 0.158708 25.775 0 26.6215 0C27.4679 0 28.2086 0.153417 28.8434 0.460252C29.4782 0.767088 29.9755 1.20618 30.3352 1.77753C30.7056 2.33829 30.9172 3.01545 30.9701 3.80899H29.256C29.0867 3.13183 28.7799 2.61339 28.3355 2.25365C27.8911 1.88333 27.3198 1.69817 26.6215 1.69817C25.8491 1.69817 25.2407 1.88862 24.7963 2.26952C24.3625 2.63984 24.1456 3.15299 24.1456 3.80899C24.1456 4.29569 24.2991 4.69246 24.6059 4.9993C24.9233 5.30613 25.3677 5.50716 25.939 5.60238L27.3357 5.8087C28.4466 5.98857 29.2825 6.38534 29.8433 6.99901C30.404 7.6021 30.6844 8.40622 30.6844 9.41137C30.6844 10.1838 30.5098 10.8556 30.1607 11.427C29.8221 11.9877 29.3407 12.4268 28.7164 12.7442C28.0922 13.0511 27.3621 13.2045 26.5263 13.2045C25.6798 13.2045 24.9392 13.0669 24.3044 12.7918C23.6801 12.5062 23.1828 12.1041 22.8125 11.5857C22.4528 11.0566 22.2517 10.4324 22.2094 9.71292H23.9393Z" fill="#B8FCFB"/>
    <path d="M10.9063 12.9505V0.253901H13.7789L15.2708 7.60207H15.4454L16.9213 0.253901H19.6987V12.9505H18.0482V5.64997L18.1116 1.52356H17.9212L16.5087 8.66541H14.1122L12.6838 1.52356H12.4934L12.5569 5.64997V12.9505H10.9063Z" fill="#B8FCFB"/>
    <path d="M0 12.9505V0.253901H3.07893L6.60224 11.792H6.77682L6.71334 8.14168V0.253901H8.37977V12.9505H5.30084L1.77753 1.41247H1.60295L1.66643 5.06275V12.9505H0Z" fill="#B8FCFB"/>
    <path d="M61.8972 12.9505V1.95204H58.1517V0.253872H67.452V1.95204H63.7065V12.9505H61.8972Z" fill="#B8FCFB"/>
    <path d="M48.0477 12.9505L51.1584 6.84024L47.8256 0.253872H49.857L52.3329 5.18968L52.4916 5.96735H52.6661L52.8249 5.18968L55.3642 0.253872H57.3163L53.9834 6.74502L57.0941 12.9505H55.0309L52.8249 8.4908L52.6503 7.6814H52.4757L52.317 8.4908L50.0475 12.9505H48.0477Z" fill="#B8FCFB"/>
    <path d="M41.4354 12.9505V1.95205H37.6898V0.253873H46.9901V1.95205H43.2446V12.9505H41.4354Z" fill="#B8FCFB"/>
    <path d="M23.9393 9.71292C24.1192 10.2948 24.426 10.7392 24.8598 11.0461C25.2936 11.3529 25.8491 11.5063 26.5263 11.5063C27.2669 11.5063 27.8488 11.3212 28.272 10.9508C28.6953 10.5805 28.9069 10.0674 28.9069 9.41137C28.9069 8.93525 28.7482 8.54377 28.4308 8.23693C28.1239 7.91952 27.6795 7.71849 27.0976 7.63384L25.701 7.42752C24.6006 7.23708 23.77 6.84031 23.2093 6.23722C22.6485 5.63413 22.3681 4.82472 22.3681 3.80899C22.3681 3.03661 22.5427 2.37004 22.8919 1.80927C23.2516 1.23792 23.7489 0.793539 24.3837 0.476124C25.0291 0.158708 25.775 0 26.6215 0C27.4679 0 28.2086 0.153417 28.8434 0.460252C29.4782 0.767088 29.9755 1.20618 30.3352 1.77753C30.7056 2.33829 30.9172 3.01545 30.9701 3.80899H29.256C29.0867 3.13183 28.7799 2.61339 28.3355 2.25365C27.8911 1.88333 27.3198 1.69817 26.6215 1.69817C25.8491 1.69817 25.2407 1.88862 24.7963 2.26952C24.3625 2.63984 24.1456 3.15299 24.1456 3.80899C24.1456 4.29569 24.2991 4.69246 24.6059 4.9993C24.9233 5.30613 25.3677 5.50716 25.939 5.60238L27.3357 5.8087C28.4466 5.98857 29.2825 6.38534 29.8433 6.99901C30.404 7.6021 30.6844 8.40622 30.6844 9.41137C30.6844 10.1838 30.5098 10.8556 30.1607 11.427C29.8221 11.9877 29.3407 12.4268 28.7164 12.7442C28.0922 13.0511 27.3621 13.2045 26.5263 13.2045C25.6798 13.2045 24.9392 13.0669 24.3044 12.7918C23.6801 12.5062 23.1828 12.1041 22.8125 11.5857C22.4528 11.0566 22.2517 10.4324 22.2094 9.71292H23.9393Z" stroke="#FA7054" stroke-width="2" mask="url(#path-1-inside-1_3_317)"/>
    <path d="M10.9063 12.9505V0.253901H13.7789L15.2708 7.60207H15.4454L16.9213 0.253901H19.6987V12.9505H18.0482V5.64997L18.1116 1.52356H17.9212L16.5087 8.66541H14.1122L12.6838 1.52356H12.4934L12.5569 5.64997V12.9505H10.9063Z" stroke="#FA7054" stroke-width="2" mask="url(#path-1-inside-1_3_317)"/>
    <path d="M0 12.9505V0.253901H3.07893L6.60224 11.792H6.77682L6.71334 8.14168V0.253901H8.37977V12.9505H5.30084L1.77753 1.41247H1.60295L1.66643 5.06275V12.9505H0Z" stroke="#FA7054" stroke-width="2" mask="url(#path-1-inside-1_3_317)"/>
    <path d="M61.8972 12.9505V1.95204H58.1517V0.253872H67.452V1.95204H63.7065V12.9505H61.8972Z" stroke="#FA7054" stroke-width="2" mask="url(#path-1-inside-1_3_317)"/>
    <path d="M48.0477 12.9505L51.1584 6.84024L47.8256 0.253872H49.857L52.3329 5.18968L52.4916 5.96735H52.6661L52.8249 5.18968L55.3642 0.253872H57.3163L53.9834 6.74502L57.0941 12.9505H55.0309L52.8249 8.4908L52.6503 7.6814H52.4757L52.317 8.4908L50.0475 12.9505H48.0477Z" stroke="#FA7054" stroke-width="2" mask="url(#path-1-inside-1_3_317)"/>
    <path d="M41.4354 12.9505V1.95205H37.6898V0.253873H46.9901V1.95205H43.2446V12.9505H41.4354Z" stroke="#FA7054" stroke-width="2" mask="url(#path-1-inside-1_3_317)"/>
    <path d="M37.5486 11.1871C37.5486 12.161 36.7591 12.9505 35.7852 12.9505C34.8113 12.9505 34.0218 12.161 34.0218 11.1871C34.0218 10.2132 34.8113 9.42365 35.7852 9.42365C36.7591 9.42365 37.5486 10.2132 37.5486 11.1871Z" stroke="#FA7054" stroke-width="2" mask="url(#path-1-inside-1_3_317)"/>
</svg>
